<svg xmlns="http://www.w3.org/2000/svg" width="96" height="128" viewBox="0 0 96 128"><defs><linearGradient id="skin" x2="0" y2="1"><stop stop-color="#f5c89f"/><stop offset="1" stop-color="#c98262"/></linearGradient><linearGradient id="gold" x2="0" y2="1"><stop stop-color="#fff1a6"/><stop offset=".5" stop-color="#eab95f"/><stop offset="1" stop-color="#a8653e"/></linearGradient><filter id="shadow" x="-30%" y="-30%" width="160%" height="170%"><feDropShadow dx="0" dy="4" stdDeviation="3" flood-color="#102c3b" flood-opacity=".35"/></filter></defs><g stroke="#17384a" stroke-width="3" stroke-linecap="round" stroke-linejoin="round" filter="url(#shadow)"><ellipse cx="48" cy="121" rx="32" ry="5" fill="#102c3b" opacity=".3" stroke="none"/><path d="m25 120 4-53 19-14 20 14 5 53Z" fill="#28566b"/><path d="m18 118 12-51 13 9-8 44Zm60 0L67 67l-13 9 8 44Z" fill="#6e4059"/><circle cx="48" cy="37" r="23" fill="url(#skin)"/><path d="M23 36Q47 4 75 34L65 48 48 39 31 48Z" fill="#8c3f56"/><path d="M25 34h47" stroke="url(#gold)" stroke-width="5"/><path d="m35 38 10 3m16-3-10 3M39 52q9 6 18 0" fill="none"/><path d="M16 80 33 65l9 13-22 15Zm64 0L63 65 54 78l22 15Z" fill="url(#gold)"/><path d="M43 85h11" stroke="#f5d58b" stroke-width="6"/></g></svg>