<svg xmlns="http://www.w3.org/2000/svg" width="96" height="128" viewBox="0 0 96 128"><defs><linearGradient id="gold" x2="0" y2="1"><stop stop-color="#ffecae"/><stop offset="1" stop-color="#bd7c43"/></linearGradient><linearGradient id="sea" x2="0" y2="1"><stop stop-color="#8af0d9"/><stop offset="1" stop-color="#326e88"/></linearGradient><linearGradient id="violet" x2="0" y2="1"><stop stop-color="#cba9ef"/><stop offset="1" stop-color="#544473"/></linearGradient></defs><g stroke="#213950" stroke-width="2.6" stroke-linejoin="round" stroke-linecap="round"><path d="M16 82q0-35 36-36 36 0 31 39l-8 28H61V90H35v23H19Z" fill="#eda15c"/><path d="M30 48 23 14l20 12q15-4 23 4l14-13-1 39-13 18-29-6Z" fill="#f9bd73"/><path d="m29 17 8 15m36-9-7 14M45 30l5 14 5-12M31 49l10 3m28-1-10 3m-40 26 13 6m45-7-13 9" fill="none" stroke-width="6"/><path d="M39 58q13-11 26 0l-5 13-12 2-9-8Z" fill="#ffebca"/><circle cx="43" cy="48" r="2"/><circle cx="62" cy="49" r="2"/><path d="M79 78q27-34 1-38" fill="none" stroke="#eda15c" stroke-width="9"/></g></svg>