<svg xmlns="http://www.w3.org/2000/svg" width="96" height="128" viewBox="0 0 96 128"><defs><linearGradient id="gold" x2="0" y2="1"><stop stop-color="#ffecae"/><stop offset="1" stop-color="#bd7c43"/></linearGradient><linearGradient id="sea" x2="0" y2="1"><stop stop-color="#8af0d9"/><stop offset="1" stop-color="#326e88"/></linearGradient><linearGradient id="violet" x2="0" y2="1"><stop stop-color="#cba9ef"/><stop offset="1" stop-color="#544473"/></linearGradient></defs><g stroke="#213950" stroke-width="2.6" stroke-linejoin="round" stroke-linecap="round"><path d="M26 118V79h44v39H56V96H43v22Z" fill="#334a60"/><path d="M25 48h47l8 41-61 0Z" fill="#8ab0a0"/><path d="m27 50-12 35 13 5 13-36m29-4 13 35-13 5-12-36" fill="#e9bf9a"/><circle cx="49" cy="29" r="20" fill="#e9bf9a"/><path d="M27 28q-1-24 22-23 24 2 23 24l-16-11-10 7-12-8Z" fill="#574334"/><path d="M38 29h4m15 0h4M42 39q8 5 15 0" fill="none"/><path d="M46 50h9v36h-9Z" fill="url(#gold)"/><path d="M20 70h11v35H20Z" fill="#a5744c"/></g></svg>